<?xml version="1.0" encoding="us-ascii" standalone="no"?><svg xmlns="http://www.w3.org/2000/svg" xmlns:xlink="http://www.w3.org/1999/xlink" contentStyleType="text/css" height="515px" preserveAspectRatio="none" style="width:1126px;height:515px;background:#FFFFFF;" version="1.1" viewBox="0 0 1126 515" width="1126px" zoomAndPan="magnify"><defs/><g><!--class DatabaseFactory--><g id="elem_DatabaseFactory"><rect codeLine="1" fill="#F1F1F1" height="64.2969" id="DatabaseFactory" rx="2.5" ry="2.5" style="stroke:#181818;stroke-width:0.5;" width="159" x="45" y="255"/><ellipse cx="62.25" cy="271" fill="#ADD1B2" rx="11" ry="11" style="stroke:#181818;stroke-width:1.0;"/><path d="M64.5938,266.6719 C63.6563,266.2344 63.0625,266.0938 62.1875,266.0938 C59.5625,266.0938 57.5625,268.1719 57.5625,270.8906 L57.5625,272.0156 C57.5625,274.5938 59.6719,276.4844 62.5625,276.4844 C63.7813,276.4844 64.9375,276.1875 65.6875,275.6406 C66.2656,275.2344 66.5938,274.7813 66.5938,274.3906 C66.5938,273.9375 66.2031,273.5469 65.7344,273.5469 C65.5156,273.5469 65.3125,273.625 65.125,273.8125 C64.6719,274.2969 64.6719,274.2969 64.4844,274.3906 C64.0625,274.6563 63.375,274.7813 62.6094,274.7813 C60.5625,274.7813 59.2656,273.6875 59.2656,271.9844 L59.2656,270.8906 C59.2656,269.1094 60.5156,267.7969 62.25,267.7969 C62.8281,267.7969 63.4375,267.9531 63.9063,268.2031 C64.3906,268.4844 64.5625,268.7031 64.6563,269.1094 C64.7188,269.5156 64.75,269.6406 64.8906,269.7656 C65.0313,269.9063 65.2656,270.0156 65.4844,270.0156 C65.75,270.0156 66.0156,269.875 66.1875,269.6563 C66.2969,269.5 66.3281,269.3125 66.3281,268.8906 L66.3281,267.4688 C66.3281,267.0313 66.3125,266.9063 66.2188,266.75 C66.0625,266.4844 65.7813,266.3438 65.4844,266.3438 C65.1875,266.3438 64.9844,266.4375 64.7656,266.75 L64.5938,266.6719 Z " fill="#000000"/><text fill="#000000" font-family="sans-serif" font-size="14" lengthAdjust="spacing" textLength="122" x="76.75" y="275.8467">DatabaseFactory</text><line style="stroke:#181818;stroke-width:0.5;" x1="46" x2="203" y1="287" y2="287"/><line style="stroke:#181818;stroke-width:0.5;" x1="46" x2="203" y1="295" y2="295"/><ellipse cx="56" cy="308.6484" fill="#84BE84" rx="3" ry="3" style="stroke:#038048;stroke-width:1.0;"/><text fill="#000000" font-family="sans-serif" font-size="14" lengthAdjust="spacing" textLength="133" x="65" y="311.9951">getDatabase(): DB</text></g><!--class EnvironmentVariableReader--><g id="elem_EnvironmentVariableReader"><rect codeLine="5" fill="#F1F1F1" height="64.2969" id="EnvironmentVariableReader" rx="2.5" ry="2.5" style="stroke:#181818;stroke-width:0.5;" width="235" x="7" y="411.5"/><ellipse cx="22" cy="427.5" fill="#ADD1B2" rx="11" ry="11" style="stroke:#181818;stroke-width:1.0;"/><path d="M24.3438,423.1719 C23.4063,422.7344 22.8125,422.5938 21.9375,422.5938 C19.3125,422.5938 17.3125,424.6719 17.3125,427.3906 L17.3125,428.5156 C17.3125,431.0938 19.4219,432.9844 22.3125,432.9844 C23.5313,432.9844 24.6875,432.6875 25.4375,432.1406 C26.0156,431.7344 26.3438,431.2813 26.3438,430.8906 C26.3438,430.4375 25.9531,430.0469 25.4844,430.0469 C25.2656,430.0469 25.0625,430.125 24.875,430.3125 C24.4219,430.7969 24.4219,430.7969 24.2344,430.8906 C23.8125,431.1563 23.125,431.2813 22.3594,431.2813 C20.3125,431.2813 19.0156,430.1875 19.0156,428.4844 L19.0156,427.3906 C19.0156,425.6094 20.2656,424.2969 22,424.2969 C22.5781,424.2969 23.1875,424.4531 23.6563,424.7031 C24.1406,424.9844 24.3125,425.2031 24.4063,425.6094 C24.4688,426.0156 24.5,426.1406 24.6406,426.2656 C24.7813,426.4063 25.0156,426.5156 25.2344,426.5156 C25.5,426.5156 25.7656,426.375 25.9375,426.1563 C26.0469,426 26.0781,425.8125 26.0781,425.3906 L26.0781,423.9688 C26.0781,423.5313 26.0625,423.4063 25.9688,423.25 C25.8125,422.9844 25.5313,422.8438 25.2344,422.8438 C24.9375,422.8438 24.7344,422.9375 24.5156,423.25 L24.3438,423.1719 Z " fill="#000000"/><text fill="#000000" font-family="sans-serif" font-size="14" lengthAdjust="spacing" textLength="203" x="36" y="432.3467">EnvironmentVariableReader</text><line style="stroke:#181818;stroke-width:0.5;" x1="8" x2="241" y1="443.5" y2="443.5"/><line style="stroke:#181818;stroke-width:0.5;" x1="8" x2="241" y1="451.5" y2="451.5"/><ellipse cx="18" cy="465.1484" fill="#84BE84" rx="3" ry="3" style="stroke:#038048;stroke-width:1.0;"/><text fill="#000000" font-family="sans-serif" font-size="14" lengthAdjust="spacing" textLength="194" x="27" y="468.4951">readVariable(str name): str</text></g><!--class FastAPI--><g id="elem_FastAPI"><rect codeLine="9" fill="#F1F1F1" height="64.2969" id="FastAPI" rx="2.5" ry="2.5" style="stroke:#181818;stroke-width:0.5;" width="383" x="243" y="131"/><ellipse cx="403.75" cy="147" fill="#ADD1B2" rx="11" ry="11" style="stroke:#181818;stroke-width:1.0;"/><path d="M406.0938,142.6719 C405.1563,142.2344 404.5625,142.0938 403.6875,142.0938 C401.0625,142.0938 399.0625,144.1719 399.0625,146.8906 L399.0625,148.0156 C399.0625,150.5938 401.1719,152.4844 404.0625,152.4844 C405.2813,152.4844 406.4375,152.1875 407.1875,151.6406 C407.7656,151.2344 408.0938,150.7813 408.0938,150.3906 C408.0938,149.9375 407.7031,149.5469 407.2344,149.5469 C407.0156,149.5469 406.8125,149.625 406.625,149.8125 C406.1719,150.2969 406.1719,150.2969 405.9844,150.3906 C405.5625,150.6563 404.875,150.7813 404.1094,150.7813 C402.0625,150.7813 400.7656,149.6875 400.7656,147.9844 L400.7656,146.8906 C400.7656,145.1094 402.0156,143.7969 403.75,143.7969 C404.3281,143.7969 404.9375,143.9531 405.4063,144.2031 C405.8906,144.4844 406.0625,144.7031 406.1563,145.1094 C406.2188,145.5156 406.25,145.6406 406.3906,145.7656 C406.5313,145.9063 406.7656,146.0156 406.9844,146.0156 C407.25,146.0156 407.5156,145.875 407.6875,145.6563 C407.7969,145.5 407.8281,145.3125 407.8281,144.8906 L407.8281,143.4688 C407.8281,143.0313 407.8125,142.9063 407.7188,142.75 C407.5625,142.4844 407.2813,142.3438 406.9844,142.3438 C406.6875,142.3438 406.4844,142.4375 406.2656,142.75 L406.0938,142.6719 Z " fill="#000000"/><text fill="#000000" font-family="sans-serif" font-size="14" lengthAdjust="spacing" textLength="53" x="424.25" y="151.8467">FastAPI</text><line style="stroke:#181818;stroke-width:0.5;" x1="244" x2="625" y1="163" y2="163"/><text fill="#000000" font-family="sans-serif" font-size="14" lengthAdjust="spacing" textLength="371" x="249" y="179.9951">// Obs&#322;u&#380;one przez framework - entrypoint aplikacji</text><line style="stroke:#181818;stroke-width:0.5;" x1="244" x2="625" y1="187.2969" y2="187.2969"/></g><!--class Base--><g id="elem_Base"><rect codeLine="13" fill="#F1F1F1" height="64.2969" id="Base" rx="2.5" ry="2.5" style="stroke:#181818;stroke-width:0.5;" width="161" x="885" y="255"/><ellipse cx="943.75" cy="271" fill="#A9DCDF" rx="11" ry="11" style="stroke:#181818;stroke-width:1.0;"/><path d="M945.8281,272.8125 L946.2188,273.7969 L945.8281,273.7969 C945.375,273.7969 945.2656,273.8125 945.1094,273.9219 C944.8594,274.0781 944.7031,274.3594 944.7031,274.6563 C944.7031,274.9219 944.8438,275.1719 945.0625,275.3281 C945.2031,275.4531 945.4063,275.5 945.8281,275.5 L948.1875,275.5 C948.5469,275.5 948.7656,275.4688 948.9063,275.375 C949.1563,275.2344 949.3125,274.9375 949.3125,274.6563 C949.3125,274.375 949.1719,274.125 948.9531,273.9688 C948.7813,273.8281 948.625,273.7969 948.1563,273.7969 L944.7656,265.5938 L941.0938,265.5938 C940.6406,265.5938 940.5156,265.6094 940.3594,265.7031 C940.1094,265.875 939.9531,266.1563 939.9531,266.4375 C939.9531,266.7188 940.0938,266.9688 940.3125,267.1406 C940.4844,267.25 940.6563,267.2813 941.0938,267.2813 L942.1719,267.2813 L939.5313,273.7969 C939.1094,273.7969 938.9531,273.8125 938.7969,273.9219 C938.5469,274.0781 938.3906,274.3594 938.3906,274.6563 C938.3906,275.2188 938.7656,275.5 939.5156,275.5 L941.7813,275.5 C942.1406,275.5 942.3594,275.4688 942.4844,275.375 C942.75,275.2344 942.8906,274.9375 942.8906,274.6563 C942.8906,274.375 942.7656,274.125 942.5469,273.9531 C942.375,273.8281 942.2344,273.7969 941.7813,273.7969 L941.3906,273.7969 L941.7813,272.8125 L945.8281,272.8125 Z M945.125,271.1094 L942.4531,271.1094 L943.7969,267.8438 L945.125,271.1094 Z " fill="#000000"/><text fill="#000000" font-family="sans-serif" font-size="14" font-style="italic" lengthAdjust="spacing" textLength="35" x="964.25" y="275.8467">Base</text><line style="stroke:#181818;stroke-width:0.5;" x1="886" x2="1045" y1="287" y2="287"/><line style="stroke:#181818;stroke-width:0.5;" x1="886" x2="1045" y1="295" y2="295"/><polygon fill="#FFFF44" points="896,303.6484,900,307.6484,896,311.6484,892,307.6484" style="stroke:#B38D22;stroke-width:1.0;"/><text fill="#000000" font-family="sans-serif" font-size="14" lengthAdjust="spacing" textLength="135" x="905" y="311.9951">abstract toString()</text></g><!--class User--><g id="elem_User"><rect codeLine="17" fill="#F1F1F1" height="129.4844" id="User" rx="2.5" ry="2.5" style="stroke:#181818;stroke-width:0.5;" width="251" x="868" y="379"/><ellipse cx="973.75" cy="395" fill="#ADD1B2" rx="11" ry="11" style="stroke:#181818;stroke-width:1.0;"/><path d="M976.0938,390.6719 C975.1563,390.2344 974.5625,390.0938 973.6875,390.0938 C971.0625,390.0938 969.0625,392.1719 969.0625,394.8906 L969.0625,396.0156 C969.0625,398.5938 971.1719,400.4844 974.0625,400.4844 C975.2813,400.4844 976.4375,400.1875 977.1875,399.6406 C977.7656,399.2344 978.0938,398.7813 978.0938,398.3906 C978.0938,397.9375 977.7031,397.5469 977.2344,397.5469 C977.0156,397.5469 976.8125,397.625 976.625,397.8125 C976.1719,398.2969 976.1719,398.2969 975.9844,398.3906 C975.5625,398.6563 974.875,398.7813 974.1094,398.7813 C972.0625,398.7813 970.7656,397.6875 970.7656,395.9844 L970.7656,394.8906 C970.7656,393.1094 972.0156,391.7969 973.75,391.7969 C974.3281,391.7969 974.9375,391.9531 975.4063,392.2031 C975.8906,392.4844 976.0625,392.7031 976.1563,393.1094 C976.2188,393.5156 976.25,393.6406 976.3906,393.7656 C976.5313,393.9063 976.7656,394.0156 976.9844,394.0156 C977.25,394.0156 977.5156,393.875 977.6875,393.6563 C977.7969,393.5 977.8281,393.3125 977.8281,392.8906 L977.8281,391.4688 C977.8281,391.0313 977.8125,390.9063 977.7188,390.75 C977.5625,390.4844 977.2813,390.3438 976.9844,390.3438 C976.6875,390.3438 976.4844,390.4375 976.2656,390.75 L976.0938,390.6719 Z " fill="#000000"/><text fill="#000000" font-family="sans-serif" font-size="14" lengthAdjust="spacing" textLength="31" x="994.25" y="399.8467">User</text><line style="stroke:#181818;stroke-width:0.5;" x1="869" x2="1118" y1="411" y2="411"/><line style="stroke:#181818;stroke-width:0.5;" x1="869" x2="1118" y1="419" y2="419"/><ellipse cx="879" cy="432.6484" fill="#84BE84" rx="3" ry="3" style="stroke:#038048;stroke-width:1.0;"/><text fill="#000000" font-family="sans-serif" font-size="14" lengthAdjust="spacing" textLength="105" x="888" y="435.9951">getName(): str</text><ellipse cx="879" cy="448.9453" fill="#84BE84" rx="3" ry="3" style="stroke:#038048;stroke-width:1.0;"/><text fill="#000000" font-family="sans-serif" font-size="14" lengthAdjust="spacing" textLength="173" x="888" y="452.292">setName(str name): self</text><ellipse cx="879" cy="465.2422" fill="#84BE84" rx="3" ry="3" style="stroke:#038048;stroke-width:1.0;"/><text fill="#000000" font-family="sans-serif" font-size="14" lengthAdjust="spacing" textLength="103" x="888" y="468.5889">getLogin(): str</text><ellipse cx="879" cy="481.5391" fill="#84BE84" rx="3" ry="3" style="stroke:#038048;stroke-width:1.0;"/><text fill="#000000" font-family="sans-serif" font-size="14" lengthAdjust="spacing" textLength="166" x="888" y="484.8857">setLogin(str login): self</text><ellipse cx="879" cy="497.8359" fill="#84BE84" rx="3" ry="3" style="stroke:#038048;stroke-width:1.0;"/><text fill="#000000" font-family="sans-serif" font-size="14" lengthAdjust="spacing" textLength="225" x="888" y="501.1826">setPassword(str password): self</text></g><!--class AbstractRepository--><g id="elem_AbstractRepository"><rect codeLine="25" fill="#F1F1F1" height="64.2969" id="AbstractRepository" rx="2.5" ry="2.5" style="stroke:#181818;stroke-width:0.5;" width="167" x="41" y="131"/><ellipse cx="56" cy="147" fill="#A9DCDF" rx="11" ry="11" style="stroke:#181818;stroke-width:1.0;"/><path d="M58.0781,148.8125 L58.4688,149.7969 L58.0781,149.7969 C57.625,149.7969 57.5156,149.8125 57.3594,149.9219 C57.1094,150.0781 56.9531,150.3594 56.9531,150.6563 C56.9531,150.9219 57.0938,151.1719 57.3125,151.3281 C57.4531,151.4531 57.6563,151.5 58.0781,151.5 L60.4375,151.5 C60.7969,151.5 61.0156,151.4688 61.1563,151.375 C61.4063,151.2344 61.5625,150.9375 61.5625,150.6563 C61.5625,150.375 61.4219,150.125 61.2031,149.9688 C61.0313,149.8281 60.875,149.7969 60.4063,149.7969 L57.0156,141.5938 L53.3438,141.5938 C52.8906,141.5938 52.7656,141.6094 52.6094,141.7031 C52.3594,141.875 52.2031,142.1563 52.2031,142.4375 C52.2031,142.7188 52.3438,142.9688 52.5625,143.1406 C52.7344,143.25 52.9063,143.2813 53.3438,143.2813 L54.4219,143.2813 L51.7813,149.7969 C51.3594,149.7969 51.2031,149.8125 51.0469,149.9219 C50.7969,150.0781 50.6406,150.3594 50.6406,150.6563 C50.6406,151.2188 51.0156,151.5 51.7656,151.5 L54.0313,151.5 C54.3906,151.5 54.6094,151.4688 54.7344,151.375 C55,151.2344 55.1406,150.9375 55.1406,150.6563 C55.1406,150.375 55.0156,150.125 54.7969,149.9531 C54.625,149.8281 54.4844,149.7969 54.0313,149.7969 L53.6406,149.7969 L54.0313,148.8125 L58.0781,148.8125 Z M57.375,147.1094 L54.7031,147.1094 L56.0469,143.8438 L57.375,147.1094 Z " fill="#000000"/><text fill="#000000" font-family="sans-serif" font-size="14" font-style="italic" lengthAdjust="spacing" textLength="135" x="70" y="151.8467">AbstractRepository</text><line style="stroke:#181818;stroke-width:0.5;" x1="42" x2="207" y1="163" y2="163"/><line style="stroke:#181818;stroke-width:0.5;" x1="42" x2="207" y1="171" y2="171"/><polygon fill="#FFFF44" points="52,179.6484,56,183.6484,52,187.6484,48,183.6484" style="stroke:#B38D22;stroke-width:1.0;"/><text fill="#000000" font-family="sans-serif" font-size="14" lengthAdjust="spacing" textLength="133" x="61" y="187.9951">getDatabase(): DB</text></g><!--class Tournament--><g id="elem_Tournament"><rect codeLine="29" fill="#F1F1F1" height="113.1875" id="Tournament" rx="2.5" ry="2.5" style="stroke:#181818;stroke-width:0.5;" width="175" x="658" y="387"/><ellipse cx="697.75" cy="403" fill="#ADD1B2" rx="11" ry="11" style="stroke:#181818;stroke-width:1.0;"/><path d="M700.0938,398.6719 C699.1563,398.2344 698.5625,398.0938 697.6875,398.0938 C695.0625,398.0938 693.0625,400.1719 693.0625,402.8906 L693.0625,404.0156 C693.0625,406.5938 695.1719,408.4844 698.0625,408.4844 C699.2813,408.4844 700.4375,408.1875 701.1875,407.6406 C701.7656,407.2344 702.0938,406.7813 702.0938,406.3906 C702.0938,405.9375 701.7031,405.5469 701.2344,405.5469 C701.0156,405.5469 700.8125,405.625 700.625,405.8125 C700.1719,406.2969 700.1719,406.2969 699.9844,406.3906 C699.5625,406.6563 698.875,406.7813 698.1094,406.7813 C696.0625,406.7813 694.7656,405.6875 694.7656,403.9844 L694.7656,402.8906 C694.7656,401.1094 696.0156,399.7969 697.75,399.7969 C698.3281,399.7969 698.9375,399.9531 699.4063,400.2031 C699.8906,400.4844 700.0625,400.7031 700.1563,401.1094 C700.2188,401.5156 700.25,401.6406 700.3906,401.7656 C700.5313,401.9063 700.7656,402.0156 700.9844,402.0156 C701.25,402.0156 701.5156,401.875 701.6875,401.6563 C701.7969,401.5 701.8281,401.3125 701.8281,400.8906 L701.8281,399.4688 C701.8281,399.0313 701.8125,398.9063 701.7188,398.75 C701.5625,398.4844 701.2813,398.3438 700.9844,398.3438 C700.6875,398.3438 700.4844,398.4375 700.2656,398.75 L700.0938,398.6719 Z " fill="#000000"/><text fill="#000000" font-family="sans-serif" font-size="14" lengthAdjust="spacing" textLength="88" x="717.25" y="407.8467">Tournament</text><line style="stroke:#181818;stroke-width:0.5;" x1="659" x2="832" y1="419" y2="419"/><line style="stroke:#181818;stroke-width:0.5;" x1="659" x2="832" y1="427" y2="427"/><ellipse cx="669" cy="440.6484" fill="#84BE84" rx="3" ry="3" style="stroke:#038048;stroke-width:1.0;"/><text fill="#000000" font-family="sans-serif" font-size="14" lengthAdjust="spacing" textLength="105" x="678" y="443.9951">getName(): str</text><ellipse cx="669" cy="456.9453" fill="#84BE84" rx="3" ry="3" style="stroke:#038048;stroke-width:1.0;"/><text fill="#000000" font-family="sans-serif" font-size="14" lengthAdjust="spacing" textLength="149" x="678" y="460.292">setName(name): self</text><ellipse cx="669" cy="473.2422" fill="#84BE84" rx="3" ry="3" style="stroke:#038048;stroke-width:1.0;"/><text fill="#000000" font-family="sans-serif" font-size="14" lengthAdjust="spacing" textLength="112" x="678" y="476.5889">getDate(): date</text><ellipse cx="669" cy="489.5391" fill="#84BE84" rx="3" ry="3" style="stroke:#038048;stroke-width:1.0;"/><text fill="#000000" font-family="sans-serif" font-size="14" lengthAdjust="spacing" textLength="136" x="678" y="492.8857">setDate(date): self</text></g><!--class TournamentRepository--><g id="elem_TournamentRepository"><rect codeLine="36" fill="#F1F1F1" height="64.2969" id="TournamentRepository" rx="2.5" ry="2.5" style="stroke:#181818;stroke-width:0.5;" width="297" x="424" y="255"/><ellipse cx="484.75" cy="271" fill="#ADD1B2" rx="11" ry="11" style="stroke:#181818;stroke-width:1.0;"/><path d="M487.0938,266.6719 C486.1563,266.2344 485.5625,266.0938 484.6875,266.0938 C482.0625,266.0938 480.0625,268.1719 480.0625,270.8906 L480.0625,272.0156 C480.0625,274.5938 482.1719,276.4844 485.0625,276.4844 C486.2813,276.4844 487.4375,276.1875 488.1875,275.6406 C488.7656,275.2344 489.0938,274.7813 489.0938,274.3906 C489.0938,273.9375 488.7031,273.5469 488.2344,273.5469 C488.0156,273.5469 487.8125,273.625 487.625,273.8125 C487.1719,274.2969 487.1719,274.2969 486.9844,274.3906 C486.5625,274.6563 485.875,274.7813 485.1094,274.7813 C483.0625,274.7813 481.7656,273.6875 481.7656,271.9844 L481.7656,270.8906 C481.7656,269.1094 483.0156,267.7969 484.75,267.7969 C485.3281,267.7969 485.9375,267.9531 486.4063,268.2031 C486.8906,268.4844 487.0625,268.7031 487.1563,269.1094 C487.2188,269.5156 487.25,269.6406 487.3906,269.7656 C487.5313,269.9063 487.7656,270.0156 487.9844,270.0156 C488.25,270.0156 488.5156,269.875 488.6875,269.6563 C488.7969,269.5 488.8281,269.3125 488.8281,268.8906 L488.8281,267.4688 C488.8281,267.0313 488.8125,266.9063 488.7188,266.75 C488.5625,266.4844 488.2813,266.3438 487.9844,266.3438 C487.6875,266.3438 487.4844,266.4375 487.2656,266.75 L487.0938,266.6719 Z " fill="#000000"/><text fill="#000000" font-family="sans-serif" font-size="14" lengthAdjust="spacing" textLength="167" x="505.25" y="275.8467">TournamentRepository</text><line style="stroke:#181818;stroke-width:0.5;" x1="425" x2="720" y1="287" y2="287"/><line style="stroke:#181818;stroke-width:0.5;" x1="425" x2="720" y1="295" y2="295"/><ellipse cx="435" cy="308.6484" fill="#84BE84" rx="3" ry="3" style="stroke:#038048;stroke-width:1.0;"/><text fill="#000000" font-family="sans-serif" font-size="14" lengthAdjust="spacing" textLength="271" x="444" y="311.9951">getTournaments(): list&lt;Tournament&gt;</text></g><!--class GetTournamentsController--><g id="elem_GetTournamentsController"><rect codeLine="40" fill="#F1F1F1" height="64.2969" id="GetTournamentsController" rx="2.5" ry="2.5" style="stroke:#181818;stroke-width:0.5;" width="227" x="661" y="131"/><ellipse cx="676" cy="147" fill="#ADD1B2" rx="11" ry="11" style="stroke:#181818;stroke-width:1.0;"/><path d="M678.3438,142.6719 C677.4063,142.2344 676.8125,142.0938 675.9375,142.0938 C673.3125,142.0938 671.3125,144.1719 671.3125,146.8906 L671.3125,148.0156 C671.3125,150.5938 673.4219,152.4844 676.3125,152.4844 C677.5313,152.4844 678.6875,152.1875 679.4375,151.6406 C680.0156,151.2344 680.3438,150.7813 680.3438,150.3906 C680.3438,149.9375 679.9531,149.5469 679.4844,149.5469 C679.2656,149.5469 679.0625,149.625 678.875,149.8125 C678.4219,150.2969 678.4219,150.2969 678.2344,150.3906 C677.8125,150.6563 677.125,150.7813 676.3594,150.7813 C674.3125,150.7813 673.0156,149.6875 673.0156,147.9844 L673.0156,146.8906 C673.0156,145.1094 674.2656,143.7969 676,143.7969 C676.5781,143.7969 677.1875,143.9531 677.6563,144.2031 C678.1406,144.4844 678.3125,144.7031 678.4063,145.1094 C678.4688,145.5156 678.5,145.6406 678.6406,145.7656 C678.7813,145.9063 679.0156,146.0156 679.2344,146.0156 C679.5,146.0156 679.7656,145.875 679.9375,145.6563 C680.0469,145.5 680.0781,145.3125 680.0781,144.8906 L680.0781,143.4688 C680.0781,143.0313 680.0625,142.9063 679.9688,142.75 C679.8125,142.4844 679.5313,142.3438 679.2344,142.3438 C678.9375,142.3438 678.7344,142.4375 678.5156,142.75 L678.3438,142.6719 Z " fill="#000000"/><text fill="#000000" font-family="sans-serif" font-size="14" lengthAdjust="spacing" textLength="195" x="690" y="151.8467">GetTournamentsController</text><line style="stroke:#181818;stroke-width:0.5;" x1="662" x2="887" y1="163" y2="163"/><line style="stroke:#181818;stroke-width:0.5;" x1="662" x2="887" y1="171" y2="171"/><ellipse cx="672" cy="184.6484" fill="#84BE84" rx="3" ry="3" style="stroke:#038048;stroke-width:1.0;"/><text fill="#000000" font-family="sans-serif" font-size="14" lengthAdjust="spacing" textLength="199" x="681" y="187.9951">handle(): list&lt;Tournament&gt;</text></g><!--class AppFactory--><g id="elem_AppFactory"><rect codeLine="44" fill="#F1F1F1" height="64.2969" id="AppFactory" rx="2.5" ry="2.5" style="stroke:#181818;stroke-width:0.5;" width="145" x="532" y="7"/><ellipse cx="560.05" cy="23" fill="#ADD1B2" rx="11" ry="11" style="stroke:#181818;stroke-width:1.0;"/><path d="M562.3938,18.6719 C561.4563,18.2344 560.8625,18.0938 559.9875,18.0938 C557.3625,18.0938 555.3625,20.1719 555.3625,22.8906 L555.3625,24.0156 C555.3625,26.5938 557.4719,28.4844 560.3625,28.4844 C561.5813,28.4844 562.7375,28.1875 563.4875,27.6406 C564.0656,27.2344 564.3938,26.7813 564.3938,26.3906 C564.3938,25.9375 564.0031,25.5469 563.5344,25.5469 C563.3156,25.5469 563.1125,25.625 562.925,25.8125 C562.4719,26.2969 562.4719,26.2969 562.2844,26.3906 C561.8625,26.6563 561.175,26.7813 560.4094,26.7813 C558.3625,26.7813 557.0656,25.6875 557.0656,23.9844 L557.0656,22.8906 C557.0656,21.1094 558.3156,19.7969 560.05,19.7969 C560.6281,19.7969 561.2375,19.9531 561.7063,20.2031 C562.1906,20.4844 562.3625,20.7031 562.4563,21.1094 C562.5188,21.5156 562.55,21.6406 562.6906,21.7656 C562.8313,21.9063 563.0656,22.0156 563.2844,22.0156 C563.55,22.0156 563.8156,21.875 563.9875,21.6563 C564.0969,21.5 564.1281,21.3125 564.1281,20.8906 L564.1281,19.4688 C564.1281,19.0313 564.1125,18.9063 564.0188,18.75 C563.8625,18.4844 563.5813,18.3438 563.2844,18.3438 C562.9875,18.3438 562.7844,18.4375 562.5656,18.75 L562.3938,18.6719 Z " fill="#000000"/><text fill="#000000" font-family="sans-serif" font-size="14" lengthAdjust="spacing" textLength="84" x="576.95" y="27.8467">AppFactory</text><line style="stroke:#181818;stroke-width:0.5;" x1="533" x2="676" y1="39" y2="39"/><line style="stroke:#181818;stroke-width:0.5;" x1="533" x2="676" y1="47" y2="47"/><ellipse cx="543" cy="60.6484" fill="#84BE84" rx="3" ry="3" style="stroke:#038048;stroke-width:1.0;"/><text fill="#000000" font-family="sans-serif" font-size="14" lengthAdjust="spacing" textLength="119" x="552" y="63.9951">create(): FastAPI</text></g><!--reverse link DatabaseFactory to EnvironmentVariableReader--><g id="link_DatabaseFactory_EnvironmentVariableReader"><path codeLine="48" d="M124.5,331.265 C124.5,358.07 124.5,384.49 124.5,411.2811 " fill="none" id="DatabaseFactory-backto-EnvironmentVariableReader" style="stroke:#181818;stroke-width:1.0;"/><polygon fill="none" points="124.5,319.265,120.5,325.265,124.5,331.265,128.5,325.265,124.5,319.265" style="stroke:#181818;stroke-width:1.0;"/></g><!--reverse link Base to Tournament--><g id="link_Base_Tournament"><path codeLine="50" d="M906.5137,329.4249 C878.9097,348.8109 857.31,363.979 824.85,386.775 " fill="none" id="Base-backto-Tournament" style="stroke:#181818;stroke-width:1.0;"/><polygon fill="none" points="921.244,319.08,903.0654,324.5148,909.962,334.335,921.244,319.08" style="stroke:#181818;stroke-width:1.0;"/></g><!--reverse link Base to User--><g id="link_Base_User"><path codeLine="51" d="M974.3757,336.9765 C977.4757,354.0825 978.224,358.207 981.943,378.732 " fill="none" id="Base-backto-User" style="stroke:#181818;stroke-width:1.0;"/><polygon fill="none" points="971.166,319.265,968.4719,338.0464,980.2796,335.9066,971.166,319.265" style="stroke:#181818;stroke-width:1.0;"/></g><!--reverse link AbstractRepository to TournamentRepository--><g id="link_AbstractRepository_TournamentRepository"><path codeLine="52" d="M225.457,195.0735 C231.306,196.7995 219.854,193.394 225.5,195 C299.331,216.002 382.502,237.874 448.906,254.911 " fill="none" id="AbstractRepository-backto-TournamentRepository" style="stroke:#181818;stroke-width:1.0;"/><polygon fill="none" points="208.193,189.979,223.7588,200.8282,227.1552,189.3188,208.193,189.979" style="stroke:#181818;stroke-width:1.0;"/></g><!--reverse link AbstractRepository to DatabaseFactory--><g id="link_AbstractRepository_DatabaseFactory"><path codeLine="53" d="M124.5,207.101 C124.5,225.457 124.5,236.61 124.5,254.955 " fill="none" id="AbstractRepository-backto-DatabaseFactory" style="stroke:#181818;stroke-width:1.0;"/><polygon fill="none" points="124.5,195.101,120.5,201.101,124.5,207.101,128.5,201.101,124.5,195.101" style="stroke:#181818;stroke-width:1.0;"/></g><!--reverse link GetTournamentsController to TournamentRepository--><g id="link_GetTournamentsController_TournamentRepository"><path codeLine="55" d="M712.7322,201.3051 C682.3412,219.6611 654.277,236.61 623.902,254.955 " fill="none" id="GetTournamentsController-backto-TournamentRepository" style="stroke:#181818;stroke-width:1.0;"/><polygon fill="none" points="723.004,195.101,715.8001,194.7791,712.7322,201.3051,719.9361,201.627,723.004,195.101" style="stroke:#181818;stroke-width:1.0;"/></g><!--link AppFactory to FastAPI--><g id="link_AppFactory_FastAPI"><path codeLine="57" d="M561.162,71.101 C535.585,89.457 503.322,112.61 477.759,130.955 " fill="none" id="AppFactory-FastAPI" style="stroke:#181818;stroke-width:1.0;"/></g><!--reverse link AppFactory to GetTournamentsController--><g id="link_AppFactory_GetTournamentsController"><path codeLine="58" d="M657.5871,78.0977 C683.1641,96.4537 705.678,112.61 731.241,130.955 " fill="none" id="AppFactory-backto-GetTournamentsController" style="stroke:#181818;stroke-width:1.0;"/><polygon fill="none" points="647.838,71.101,650.3803,77.8491,657.5871,78.0977,655.0448,71.3496,647.838,71.101" style="stroke:#181818;stroke-width:1.0;"/></g><!--link GetTournamentsController to Tournament--><g id="link_GetTournamentsController_Tournament"><path codeLine="59" d="M771.258,195.137 C766.432,241.48 757.286,329.309 751.293,386.868 " fill="none" id="GetTournamentsController-Tournament" style="stroke:#181818;stroke-width:1.0;"/></g><!--link TournamentRepository to Tournament--><g id="link_TournamentRepository_Tournament"><path codeLine="60" d="M607.509,319.265 C629.23,338.664 657.762,364.145 683.242,386.899 " fill="none" id="TournamentRepository-Tournament" style="stroke:#181818;stroke-width:1.0;"/></g><!--SRC=[VL9DJm8n4BttLpJXieGGxeQOW8WnCKhmuzxTBLWfRTCM3QWNVvTN_fVJxYxjhkoUshvvy-RDT39EZC4pOabA39sJp4gznvzeiAQsGfF-1PvDqJT2cMTVYtUcfTXIOL-8PYJbT4b9JhNBqt2hqCHOZGNPKX20Qr2O4sCdYrlWZqRu8JN7dztnLmgAbJxG0rvfoFcGUeE768helP9CM4mKPnkIlJ4dH59G1BkuK9o2Jv3hdM0h7wrcOftqSQZxR0gJqDmzb4XANmDJlcE_bAyyyKwkcOYP1U2etDrEN0Wje0ZupdrKbO-AyD_qf7mkgPA6bPFlTKp-IUwqymV3wEYYsG6eUL8EfsTvmBqYQyq2DKzE9OIC4-FCs770BeF6JOrx9U439UV5u5-9o3djpfye5UrX1WjLs2-NnX6R-og7m_QjHCWln_WBIA5W1BgjG6V-ef4H8kV8paB35aAjev1joYZg7ZXLpn7gKjjqsmlMUp_xpJNA7m00]--></g></svg>